<svg xmlns="http://www.w3.org/2000/svg" width="47.224" height="33.451" viewBox="0 0 47.224 33.451">
  <path id="Path_208" data-name="Path 208" d="M1162.518,1137.644h2.3a.653.653,0,0,0,.639-.524l.661-3.3h35.663l.661,3.3a.653.653,0,0,0,.639.524h2.3a.653.653,0,0,0,.652-.652v-3.174h.879a.653.653,0,0,0,.652-.652V1130.1a.651.651,0,0,0-.65-.656h-.881v-6.232a2.958,2.958,0,0,0-2.948-2.948h-.113v-13.126a2.958,2.958,0,0,0-2.949-2.949h-32.141a2.958,2.958,0,0,0-2.948,2.949v13.123h-.113a2.956,2.956,0,0,0-2.95,2.952v6.236h-.878a.653.653,0,0,0-.653.652v3.061a.653.653,0,0,0,.653.652h.878v3.174A.653.653,0,0,0,1162.518,1137.644Zm1.76-1.3h-1.108v-2.522h1.612Zm40.444,0h-1.109l-.5-2.522h1.613Zm-36.847-30.841h32.142a1.648,1.648,0,0,1,1.644,1.644v13.123H1199.9v-3.174a2.957,2.957,0,0,0-2.948-2.949h-9.184a2.958,2.958,0,0,0-2.948,2.949v3.173h-1.752v-3.173a2.958,2.958,0,0,0-2.949-2.949h-9.187a2.958,2.958,0,0,0-2.947,2.949v3.173h-1.756v-13.122A1.648,1.648,0,0,1,1167.875,1105.5Zm30.725,11.593v3.173h-12.471v-3.173a1.648,1.648,0,0,1,1.644-1.644h9.184A1.648,1.648,0,0,1,1198.6,1117.091Zm-16.837,0v3.173h-12.47v-3.173a1.648,1.648,0,0,1,1.644-1.644h9.183A1.648,1.648,0,0,1,1181.763,1117.091Zm-18.593,6.125a1.649,1.649,0,0,1,1.644-1.644h38.266a1.649,1.649,0,0,1,1.643,1.644v6.236H1163.17Zm-1.53,9.3v-1.756h44.613v1.756Z" transform="translate(-1160.334 -1104.193)" fill="#0c3b5d"/>
</svg>
