<svg xmlns="http://www.w3.org/2000/svg" width="60.204" height="43.926" viewBox="0 0 60.204 43.926">
  <g id="Group_11695" data-name="Group 11695" transform="translate(-1461 -835)">
    <path id="Path_217" data-name="Path 217" d="M897.452,1282.5a2.805,2.805,0,1,0,2.8,2.806A2.808,2.808,0,0,0,897.452,1282.5Zm0,4.042a1.237,1.237,0,1,1,1.237-1.236A1.237,1.237,0,0,1,897.452,1286.54Z" transform="translate(573.454 -440.467)" fill="#0c3b5d"/>
    <path id="Path_218" data-name="Path 218" d="M897.452,1314.652a2.805,2.805,0,1,0,2.8,2.8A2.808,2.808,0,0,0,897.452,1314.652Zm0,4.042a1.237,1.237,0,1,1,1.237-1.237A1.238,1.238,0,0,1,897.452,1318.694Z" transform="translate(573.454 -448.369)" fill="#0c3b5d"/>
    <path id="Path_219" data-name="Path 219" d="M914.762,1296.126a.787.787,0,0,0-1.106,0l-4.042,4.043a.786.786,0,0,0,0,1.108l4.042,4.04a.787.787,0,0,0,1.109,0l4.039-4.039a.784.784,0,0,0,0-1.108Zm-.55,7.53-2.934-2.932,2.934-2.935,2.932,2.935Z" transform="translate(569.832 -443.76)" fill="#0c3b5d"/>
    <path id="Path_220" data-name="Path 220" d="M945.437,1315.346v-40.418a.783.783,0,0,0-.536-.741,20.2,20.2,0,0,0-12.623,0,.782.782,0,0,0-.536.742v1.238h-45.7a.784.784,0,1,0-.049,1.568h2.3v4.494h-2.247a.785.785,0,0,0,.006,1.569h2.241v4.494h-2.247a.785.785,0,1,0-.049,1.569h2.3v4.494h-2.247a.785.785,0,0,0,.006,1.569h2.241v4.494h-2.247a.784.784,0,0,0,.006,1.568h2.241v4.495h-2.247a.784.784,0,0,0,.006,1.568h2.241v4.495h-2.247a.784.784,0,0,0,.006,1.568h45.692v1.237a.784.784,0,0,0,.536.744,20.194,20.194,0,0,0,12.622,0A.785.785,0,0,0,945.437,1315.346Zm-13.695-22.093-2.7-2.712a.787.787,0,0,0-1.109,0l-4.044,4.043a.786.786,0,0,0,0,1.108l4.042,4.043a.787.787,0,0,0,1.109,0l2.705-2.7v3.844l-3.258,3.258-8.994-8.994,8.994-8.994,3.258,3.257Zm-.325,1.885-2.933,2.935-2.933-2.935,2.934-2.932Zm.325-7.956-2.7-2.7a.787.787,0,0,0-1.109,0l-9.55,9.55-9.55-9.55a.787.787,0,0,0-1.109,0l-10.107,10.108a.786.786,0,0,0,0,1.108l10.107,10.108a.786.786,0,0,0,1.109,0l9.55-9.55,9.55,9.55a.786.786,0,0,0,1.109,0l2.7-2.7v5.4H901.953l-.023-.2a8.844,8.844,0,0,0-7.827-7.828l-.2-.023v-10.622l.2-.023a8.847,8.847,0,0,0,7.827-7.829l.023-.2h29.789Zm-14.472,7.956-8.994,8.994-8.994-8.994,8.994-8.994Zm14.473-14.932H901.2a.786.786,0,0,0-.784.784,7.319,7.319,0,0,1-7.3,7.3.786.786,0,0,0-.784.785V1301.2a.786.786,0,0,0,.784.784,7.319,7.319,0,0,1,7.3,7.3.786.786,0,0,0,.784.784h30.538v2.472H889.861v-34.809h41.883Zm12.126,34.568-.164.047a18.525,18.525,0,0,1-10.231,0l-.164-.047V1275.5l.164-.047a18.523,18.523,0,0,1,10.231,0l.164.047Z" transform="translate(575.768 -438.176)" fill="#0c3b5d"/>
    <path id="Path_221" data-name="Path 221" d="M928.266,1287.857a2.805,2.805,0,1,0,2.8,2.805A2.808,2.808,0,0,0,928.266,1287.857Zm0,4.042a1.237,1.237,0,1,1,1.237-1.237A1.238,1.238,0,0,1,928.266,1291.9Z" transform="translate(565.881 -441.784)" fill="#0c3b5d"/>
    <path id="Path_222" data-name="Path 222" d="M928.266,1309.293a2.805,2.805,0,1,0,2.8,2.806A2.809,2.809,0,0,0,928.266,1309.293Zm0,4.042a1.237,1.237,0,1,1,1.237-1.236A1.237,1.237,0,0,1,928.266,1313.335Z" transform="translate(565.881 -447.052)" fill="#0c3b5d"/>
  </g>
</svg>
