<svg xmlns="http://www.w3.org/2000/svg" width="32.658" height="55.411" viewBox="0 0 32.658 55.411">
  <g id="Group_11692" data-name="Group 11692" transform="translate(-961 -830.432)">
    <path id="Path_214" data-name="Path 214" d="M825.161,1313.623h0a.813.813,0,0,0,.812-.811v-.27h0V1262.13a3.92,3.92,0,0,0-3.916-3.916H797.235a3.921,3.921,0,0,0-3.916,3.916v50.682a.813.813,0,0,0,.812.813h0a.814.814,0,0,0,.813-.813v-5.393h29.4v5.393A.814.814,0,0,0,825.161,1313.623Zm-30.217-51.494a2.289,2.289,0,0,1,2.289-2.29h24.825a2.292,2.292,0,0,1,2.29,2.289v9.531h-2.511V1264.2a.813.813,0,1,0-1.625,0v7.462H817.7V1264.2a.813.813,0,1,0-1.625,0v7.462h-7.684V1264.2a.813.813,0,1,0-1.625,0v7.462h-3.319l1.817-7.266a.813.813,0,1,0-1.574-.407l-1.917,7.673h-2.463l1.817-7.266a.813.813,0,1,0-1.574-.407l-1.915,7.673h-2.694Zm13.89,42.629h-13.89V1291.9h13.89ZM808.613,1282a.814.814,0,0,0-.813.813v7.462h-3.319l1.82-7.265a.813.813,0,1,0-1.574-.407l-1.919,7.671h-7.863l0-16.991h29.4v16.991h-2.511v-7.461a.813.813,0,0,0-1.625,0v7.462H817.7v-5.394a.813.813,0,0,0-1.625,0v5.393h-2.512v-7.461a.813.813,0,0,0-1.625,0v7.462h-2.512v-7.462A.814.814,0,0,0,808.613,1282Zm1.847,22.755V1291.9h13.889v12.855Z" transform="translate(167.681 -427.782)" fill="#0c3b5d"/>
    <path id="Path_215" data-name="Path 215" d="M811.3,1321.561a.813.813,0,0,0,.811.815v0a.814.814,0,0,0,.813-.813v-2.068a.813.813,0,0,0-1.625,0Z" transform="translate(161.081 -449.979)" fill="#0c3b5d"/>
    <path id="Path_216" data-name="Path 216" d="M825.183,1318.681a.814.814,0,0,0-.813.813v2.067a.813.813,0,1,0,1.625,0v-2.067A.814.814,0,0,0,825.183,1318.681Z" transform="translate(156.282 -449.979)" fill="#0c3b5d"/>
  </g>
</svg>
