<svg xmlns="http://www.w3.org/2000/svg" width="66.058" height="28.94" viewBox="0 0 66.058 28.94">
  <g id="Group_11693" data-name="Group 11693" transform="translate(-1200 -844)">
    <path id="Path_245" data-name="Path 245" d="M405.938,1716.191h-64.98a.539.539,0,0,0-.539.539v27.863a.539.539,0,0,0,.539.539h64.98a.539.539,0,0,0,.539-.539V1716.73A.539.539,0,0,0,405.938,1716.191Zm-63.944,27.365v-25.79H404.9v25.79Z" transform="translate(859.581 -872.191)" fill="#0c3b5d"/>
    <path id="Path_246" data-name="Path 246" d="M411.248,1735.586H396.371a.539.539,0,0,0-.539.539v13.931a.539.539,0,0,0,.539.539h14.878a.539.539,0,0,0,.539-.539v-13.931A.539.539,0,0,0,411.248,1735.586Zm-13.842,13.434v-11.858h12.8v11.858Z" transform="translate(829.499 -884.231)" fill="#0c3b5d"/>
  </g>
<style xmlns="" id="autoconsent-prehide"/></svg>