<svg xmlns="http://www.w3.org/2000/svg" width="62.654" height="34.821" viewBox="0 0 62.654 34.821">
  <path id="Path_201" data-name="Path 201" d="M725.434,1132.786h2.9a1.386,1.386,0,0,0,1.386-1.38v-2.289a4.018,4.018,0,0,0-3.93-4.019H725v-14.186a6.567,6.567,0,0,0-6.557-6.557h-40a6.568,6.568,0,0,0-6.557,6.557v14.274h-.8a4.026,4.026,0,0,0-4.016,4.017v2.19a1.386,1.386,0,0,0,1.38,1.393h2.995v5.872a.508.508,0,0,0,.5.517h1.244a.518.518,0,0,0,.364-.143.5.5,0,0,0,.154-.357v-5.891h49.38v5.872a.508.508,0,0,0,.5.517h1.338a.509.509,0,0,0,.511-.5Zm-52.166-21.874a5.168,5.168,0,0,1,5.165-5.172h40.01a5.167,5.167,0,0,1,5.168,5.165v14.281h-2.729v-2.9a3.834,3.834,0,0,0-3.825-3.844h-1.6v-3.685a3.722,3.722,0,0,0-3.671-3.668h-6.651a3.721,3.721,0,0,0-3.668,3.67v3.682h-6.054v-3.683a3.722,3.722,0,0,0-3.671-3.668h-6.65a3.721,3.721,0,0,0-3.668,3.67v3.682h-1.591A3.839,3.839,0,0,0,676,1122.27v2.915h-2.729Zm43.774,8.833a2.491,2.491,0,0,1,2.455,2.454v2.9H677.383v-2.9a2.491,2.491,0,0,1,2.454-2.458Zm-34.233-1.386v-3.683a2.3,2.3,0,0,1,2.28-2.283h6.654a2.3,2.3,0,0,1,2.284,2.281v3.685Zm20.043,0v-3.683a2.3,2.3,0,0,1,2.281-2.283h6.654a2.3,2.3,0,0,1,2.283,2.281v3.685Zm-34.4,13.041v-2.283a2.627,2.627,0,0,1,2.624-2.633H725.8a2.631,2.631,0,0,1,2.628,2.624v2.292Z" transform="translate(-667.069 -1104.355)" fill="#0c3b5d"/>
</svg>
