<svg xmlns="http://www.w3.org/2000/svg" width="58.119" height="31.766" viewBox="0 0 58.119 31.766">
  <g id="Group_11690" data-name="Group 11690" transform="translate(-439 -840)">
    <path id="Path_235" data-name="Path 235" d="M892.488,1110.82a2.446,2.446,0,0,0-2.442-2.446h-.8a3.732,3.732,0,0,0-3.7,3.407l-.847,9.651a1.841,1.841,0,0,1-1.831,1.675h-7.327a4.075,4.075,0,0,0-4.065,4.063v.423a2.385,2.385,0,0,0,2.379,2.379h1.833l-2.81,9.176a.665.665,0,0,0,1.273.385l1.037-3.389h12.059l1.039,3.394a.676.676,0,0,0,.854.457.666.666,0,0,0,.418-.842l-2.864-9.357.19-.054a6.155,6.155,0,0,0,4.426-5.352l1.173-13.36Q892.488,1110.925,892.488,1110.82Zm-5.648,24H875.591l1.482-4.843h8.284Zm3.144-10.542a4.77,4.77,0,0,1-4.206,4.337,4.907,4.907,0,0,1-.563.033H873.851a1.054,1.054,0,0,1-1.05-1.048v-.423a2.743,2.743,0,0,1,2.736-2.736h7.344a3.163,3.163,0,0,0,3.139-2.889l.847-9.649a2.4,2.4,0,0,1,2.386-2.2h.794c.032,0,.064,0,.1,0a1.116,1.116,0,0,1,1.015,1.207Z" transform="translate(-395.368 -268.264)" fill="#0c3b5d"/>
    <path id="Path_236" data-name="Path 236" d="M830.313,1126.987a4.076,4.076,0,0,0-4.065-4.064h-7.337a1.839,1.839,0,0,1-1.823-1.676l-.846-9.649a3.733,3.733,0,0,0-3.7-3.409h-.8a2.447,2.447,0,0,0-2.442,2.446c0,.07,0,.141.01.212l1.173,13.359a6.154,6.154,0,0,0,4.426,5.352l.19.054-2.863,9.352a.665.665,0,1,0,1.259.428l1.051-3.432H826.6l1.039,3.393a.665.665,0,0,0,1.269-.394l-2.808-9.171h1.833a2.385,2.385,0,0,0,2.379-2.379Zm-4.119,7.645H814.946l1.482-4.842h8.283Zm2.791-7.219a1.054,1.054,0,0,1-1.05,1.048H816.572a4.916,4.916,0,0,1-.564-.033,4.771,4.771,0,0,1-4.205-4.339l-1.174-13.358a1.114,1.114,0,0,1,1.015-1.207c.031,0,.063,0,.095,0h.795a2.4,2.4,0,0,1,2.385,2.2l.847,9.646a3.163,3.163,0,0,0,3.138,2.89h7.344a2.743,2.743,0,0,1,2.737,2.736Z" transform="translate(-370.297 -268.189)" fill="#0c3b5d"/>
    <g id="Group_89" data-name="Group 89" transform="translate(452.716 845.727)">
      <path id="Path_237" data-name="Path 237" d="M880.918,1123.827h0Z" transform="translate(-851.893 -1120.222)" fill="#0c3b5d"/>
      <path id="Path_238" data-name="Path 238" d="M863.06,1121.094a1.816,1.816,0,0,0-.037-.364,3.718,3.718,0,0,0-3.611-2.944H835.928a3.717,3.717,0,0,0-3.61,2.944,1.822,1.822,0,0,0,1.786,2.19H844.87v16.017h-.725a2.9,2.9,0,0,0-2.8,2.168l-.2.776a1.45,1.45,0,0,0,1.4,1.814H852.8a1.451,1.451,0,0,0,1.449-1.45,1.47,1.47,0,0,0-.047-.364l-.2-.777a2.9,2.9,0,0,0-2.8-2.167h-.725v-16.017h10.765A1.825,1.825,0,0,0,863.06,1121.094ZM851.2,1140.265h0a1.567,1.567,0,0,1,1.517,1.176l.243.925H842.387l.243-.926a1.566,1.566,0,0,1,1.516-1.174H851.2Zm-5-1.328v-16.017h2.946v16.017ZM834.1,1121.592a.594.594,0,0,1-.347-.139.49.49,0,0,1-.148-.347.5.5,0,0,1,.011-.113,2.377,2.377,0,0,1,2.307-1.877h23.488a2.378,2.378,0,0,1,2.309,1.881.493.493,0,0,1-.378.584h0a.475.475,0,0,1-.1.011H834.1Z" transform="translate(-832.281 -1117.786)" fill="#0c3b5d"/>
    </g>
  </g>
</svg>
