<?xml version="1.0" encoding="utf-8"?>
<!-- Generator: Adobe Illustrator 25.2.3, SVG Export Plug-In . SVG Version: 6.00 Build 0)  -->
<svg version="1.1" id="katman_1" xmlns="http://www.w3.org/2000/svg" xmlns:xlink="http://www.w3.org/1999/xlink" x="0px" y="0px"
	 viewBox="0 0 49.4 46.9" style="enable-background:new 0 0 49.4 46.9;" xml:space="preserve">
<style type="text/css">
	.st0{fill-rule:evenodd;clip-rule:evenodd;fill:none;stroke:#14375A;stroke-miterlimit:10;}
</style>
<path class="st0" d="M4.3,14.5H44c0.8,0,1.5,0.3,2,0.8l0,0c0.5,0.5,0.8,1.2,0.8,2l0,0c0,0.8-0.3,1.5-0.8,2c-0.4,0.4-1,0.7-1.6,0.8
	v25.2v1h-0.9H26.6h-0.9v-1V20.2H8.2v25.5H4.7V20.2H4.3c-0.8,0-1.5-0.3-2-0.8l0,0c-0.5-0.5-0.8-1.2-0.8-2l0,0c0-0.8,0.3-1.5,0.8-2
	l0,0C2.8,14.8,3.5,14.5,4.3,14.5L4.3,14.5z"/>
<rect x="9.2" y="21.4" class="st0" width="15.7" height="3.8"/>
<rect x="29.6" y="2.3" class="st0" width="15.7" height="3.8"/>
<rect x="29.6" y="8.1" class="st0" width="15.7" height="3.8"/>
<path class="st0" d="M35,38.5c0.6,0,1.2,0.6,1.2,1.3c0,0.7-0.5,1.3-1.2,1.3c-0.6,0-1.2-0.6-1.2-1.3C33.9,39.1,34.4,38.5,35,38.5
	L35,38.5z"/>
<path class="st0" d="M35,30.1c0.6,0,1.2,0.5,1.2,1.2c0,0.7-0.5,1.3-1.2,1.3c-0.6,0-1.2-0.6-1.2-1.3C33.9,30.7,34.4,30.1,35,30.1
	L35,30.1z"/>
<path class="st0" d="M35,21.5c0.6,0,1.2,0.6,1.2,1.3c0,0.7-0.5,1.3-1.2,1.3c-0.6,0-1.2-0.6-1.2-1.3C33.9,22.1,34.4,21.5,35,21.5
	L35,21.5z"/>
<rect x="27.5" y="29.6" class="st0" width="15.1" height="6.1"/>
<rect x="27.5" y="37.6" class="st0" width="15.1" height="6.8"/>
<rect x="27.5" y="20.5" class="st0" width="15.1" height="7.3"/>
</svg>
