<?xml version="1.0" encoding="utf-8"?>
<!-- Generator: Adobe Illustrator 25.2.3, SVG Export Plug-In . SVG Version: 6.00 Build 0)  -->
<svg version="1.1" id="katman_1" xmlns="http://www.w3.org/2000/svg" xmlns:xlink="http://www.w3.org/1999/xlink" x="0px" y="0px"
	 viewBox="0 0 49.4 46.9" style="enable-background:new 0 0 49.4 46.9;" xml:space="preserve">
<style type="text/css">
	.st0{fill:none;stroke:#14375A;stroke-miterlimit:10;}
</style>
<path class="st0" d="M24.3,24.5h2.1c0.3,0,0.5,0.3,0.5,0.6v0.7c0,0.4-0.2,0.6-0.5,0.6h-2.1c-0.3,0-0.5-0.3-0.5-0.6v-0.7
	C23.8,24.8,24,24.5,24.3,24.5L24.3,24.5z"/>
<path class="st0" d="M24.3,34.2h2.1c0.3,0,0.5,0.3,0.5,0.6v0.7c0,0.4-0.2,0.6-0.5,0.6h-2.1c-0.3,0-0.5-0.3-0.5-0.6v-0.7
	C23.8,34.5,24,34.2,24.3,34.2L24.3,34.2z"/>
<path class="st0" d="M24.3,15h2.1c0.3,0,0.5,0.3,0.5,0.6v0.7c0,0.3-0.2,0.6-0.5,0.6h-2.1c-0.3,0-0.5-0.3-0.5-0.6v-0.7
	C23.8,15.3,24,15,24.3,15L24.3,15z"/>
<path class="st0" d="M24.3,5.5h2.1c0.3,0,0.5,0.3,0.5,0.6v0.7c0,0.4-0.2,0.6-0.5,0.6h-2.1c-0.3,0-0.5-0.3-0.5-0.6V6.1
	C23.8,5.8,24,5.5,24.3,5.5L24.3,5.5z"/>
<path class="st0" d="M39.7,1.4H10.8c-0.5,0-0.9,0.5-0.9,1.1V3c0,0.6,0.4,1.1,0.9,1.1H11v28.7v0.9h0.7H39h0.7v-0.9V4.1
	c0.5,0,0.9-0.5,0.9-1.1V2.5C40.6,1.9,40.2,1.4,39.7,1.4z M38.3,31.9H12.5v-8.2h25.8V31.9z M38.3,21.9H12.5v-7.6h25.8V21.9z
	 M38.3,12.5H12.5V4.6h25.8V12.5z"/>
<path class="st0" d="M10.8,13.8H11v28.7v0.9h0.7H39h0.7v-0.9V13.8 M38.3,41.7H12.5v-8.2h25.8V41.7z M38.3,31.7H12.5v-7.6h25.8V31.7z
	 M38.3,22.3H12.5v-7.9h25.8V22.3z"/>
<rect x="12.4" y="43.3" class="st0" width="2.6" height="3"/>
<rect x="35.4" y="43.3" class="st0" width="2.6" height="3"/>
</svg>
