<?xml version="1.0" encoding="utf-8"?>
<!-- Generator: Adobe Illustrator 25.2.3, SVG Export Plug-In . SVG Version: 6.00 Build 0)  -->
<svg version="1.1" id="katman_1" xmlns="http://www.w3.org/2000/svg" xmlns:xlink="http://www.w3.org/1999/xlink" x="0px" y="0px"
	 viewBox="0 0 49.4 46.9" style="enable-background:new 0 0 49.4 46.9;" xml:space="preserve">
<style type="text/css">
	.st0{fill:none;stroke:#14375A;stroke-width:0.75;stroke-miterlimit:10;}
</style>
<polygon class="st0" points="3.8,2.1 45.1,2.1 46.9,2.1 46.9,3.4 46.9,6.5 46.9,8.3 46.9,42.5 46.9,43.8 45.1,43.8 3.8,43.8 2,43.8 
	2,42.5 2,3.4 2,2.1 "/>
<rect x="5.6" y="24.3" class="st0" width="17" height="7.6"/>
<rect x="5.6" y="33.8" class="st0" width="17" height="7.3"/>
<rect x="5.6" y="15.2" class="st0" width="17" height="7.1"/>
<rect x="5.6" y="4.8" class="st0" width="17" height="8.7"/>
<rect x="26.3" y="4.8" class="st0" width="17" height="36.3"/>
<path class="st0" d="M28,21.2C28,19.2,28,31.8,28,21.2L28,21.2z"/>
<rect x="37.8" y="44.2" class="st0" width="4.5" height="0.6"/>
<rect x="6.8" y="44.2" class="st0" width="4.5" height="0.6"/>
</svg>
