<?xml version="1.0" encoding="utf-8"?>
<!-- Generator: Adobe Illustrator 25.2.3, SVG Export Plug-In . SVG Version: 6.00 Build 0)  -->
<svg version="1.1" id="katman_1" xmlns="http://www.w3.org/2000/svg" xmlns:xlink="http://www.w3.org/1999/xlink" x="0px" y="0px"
	 viewBox="0 0 49.4 46.9" style="enable-background:new 0 0 49.4 46.9;" xml:space="preserve">
<style type="text/css">
	.st0{fill:none;stroke:#14375A;stroke-miterlimit:10;}
</style>
<path class="st0" d="M40.3,23.6V45v0.9h-0.9h-27h-0.9V45V23.6H9.8c-0.6,0-1.2-0.5-1.2-1.1V22c0-0.6,0.5-1.1,1.2-1.1h31.8
	c0.7,0,1.2,0.5,1.2,1.1v0.5c0,0.6-0.5,1.1-1.2,1.1H40.3z M24.5,35.1h2.8c0.4,0,0.7,0.3,0.7,0.7v0.7c0,0.4-0.3,0.6-0.7,0.6h-2.8
	c-0.4,0-0.7-0.3-0.7-0.6v-0.7C23.8,35.4,24.1,35.1,24.5,35.1L24.5,35.1z M24.5,25h2.8c0.4,0,0.7,0.3,0.7,0.7v0.7
	c0,0.4-0.3,0.7-0.7,0.7h-2.8c-0.4,0-0.7-0.3-0.7-0.7v-0.7C23.8,25.3,24.1,25,24.5,25L24.5,25z M13.3,32.1h25.2v-7.9H13.3V32.1z
	 M38.5,33.9H13.3v10.3h25.2V33.9z"/>
</svg>
