<svg xmlns="http://www.w3.org/2000/svg" width="27.136" height="24.423" viewBox="0 0 27.136 24.423">
  <path id="Path_54" data-name="Path 54" d="M156.377,1565.591c0-.324.007-.649.012-.975.007-.4.014-.805.012-1.2-.012-2.431-.4-4.612-3.664-4.6h0v0h-9.385l-.043,0c-3.23,0-3.611,2.174-3.623,4.595,0,.39.005.793.012,1.2.006.326.011.652.012.975a2.93,2.93,0,0,1,1.425.776,4.181,4.181,0,0,1,1,3.05l.029,4.736h11.756l.029-4.736a4.181,4.181,0,0,1,1-3.05,2.93,2.93,0,0,1,1.425-.776Zm-16.445,2.39a.5.5,0,1,1-.866.511.8.8,0,0,0-.311-.291l-.029-.017a.972.972,0,0,0-.432-.1.933.933,0,0,0-.628.229.675.675,0,0,0-.232.5.666.666,0,0,0,.2.467.909.909,0,0,0,.553.258.5.5,0,0,1-.1,1,1.917,1.917,0,0,1-1.167-.553,1.647,1.647,0,0,1,.077-2.415,1.941,1.941,0,0,1,1.3-.493,1.972,1.972,0,0,1,.9.215.458.458,0,0,1,.045.021,1.808,1.808,0,0,1,.7.665Zm17.062.515a.5.5,0,0,1-.866-.512,1.809,1.809,0,0,1,.7-.665.487.487,0,0,1,.045-.021,1.974,1.974,0,0,1,.9-.215,1.94,1.94,0,0,1,1.3.493,1.647,1.647,0,0,1,.077,2.415,1.918,1.918,0,0,1-1.167.553.5.5,0,1,1-.1-1,.906.906,0,0,0,.553-.258.665.665,0,0,0,.2-.467.675.675,0,0,0-.232-.5.933.933,0,0,0-.628-.229.974.974,0,0,0-.432.1l-.029.017a.8.8,0,0,0-.311.291Zm-17,10.186-.056,2.553h.851l.718-2.553Zm2.557,0-.889,3.16a.5.5,0,0,1-.493.4h-1.745v0h-.01a.5.5,0,0,1-.492-.512l.07-3.161a2.561,2.561,0,0,1-.963-.484,2.24,2.24,0,0,1-.81-1.8h0v-.006h0l.013-4.007a3.955,3.955,0,0,1-2.513-2.061,2.945,2.945,0,0,1-.211-1.647,3.337,3.337,0,0,1,.665-1.521,4.233,4.233,0,0,1,3.383-1.567h.146c0-.277-.007-.558-.012-.84-.007-.4-.014-.81-.012-1.215.015-2.948.5-5.594,4.622-5.594l.048,0h9.385v0c4.166-.02,4.654,2.635,4.669,5.595,0,.405-.005.811-.012,1.215,0,.282-.01.563-.012.84h.147a4.233,4.233,0,0,1,3.382,1.567,3.338,3.338,0,0,1,.665,1.521,2.944,2.944,0,0,1-.211,1.647,3.955,3.955,0,0,1-2.513,2.061l.013,4.007h0v.006h0a2.241,2.241,0,0,1-.81,1.8,2.56,2.56,0,0,1-.963.484l.07,3.161a.5.5,0,0,1-.492.512h-.01v0h-1.745a.5.5,0,0,1-.493-.4l-.889-3.16Zm12.023,0,.718,2.553h.851l-.056-2.553Zm-11.705-6.995a.5.5,0,0,1,0-1l10.192-.005a.5.5,0,0,1,0,1l-10.192.005Zm-3.011,5.989a1.876,1.876,0,0,1-1.19-.368,1.272,1.272,0,0,1-.444-1.03h0v-.006h0l.014-4.379a.5.5,0,0,0-.38-.487,3.16,3.16,0,0,1-2.217-1.6,1.954,1.954,0,0,1-.141-1.092,2.334,2.334,0,0,1,.468-1.061,3.239,3.239,0,0,1,2.6-1.177,2.493,2.493,0,0,1,1.855.6,3.254,3.254,0,0,1,.71,2.346l.032,5.238a.5.5,0,0,0,.5.5v0H154.42a.5.5,0,0,0,.5-.5c0-.014,0-.028,0-.042l.032-5.193a3.254,3.254,0,0,1,.711-2.346,2.492,2.492,0,0,1,1.855-.6,3.24,3.24,0,0,1,2.6,1.177,2.333,2.333,0,0,1,.468,1.061,1.952,1.952,0,0,1-.141,1.092,3.165,3.165,0,0,1-2.227,1.607.5.5,0,0,0-.37.484l.014,4.379h0v.006h0a1.273,1.273,0,0,1-.444,1.03,1.875,1.875,0,0,1-1.19.368v0H139.861Z" transform="translate(-134.476 -1557.82)" fill="#0c3b5d" fill-rule="evenodd"/>
</svg>
