<svg xmlns="http://www.w3.org/2000/svg" width="37.799" height="18.431" viewBox="0 0 37.799 18.431">
  <path id="Path_59" data-name="Path 59" d="M1425.941,967.8h.231c1.655,0,3.635-.007,4.909,1.176l5.965,5.545a2.508,2.508,0,0,1,.832,1.83,2.141,2.141,0,0,1-.132.747,1.961,1.961,0,0,1-.4.652,2.067,2.067,0,0,1-1.56.637h-1.419l-.007,7.284a.555.555,0,1,1-1.11,0l.007-7.285h-3.246l0,3.51a.555.555,0,1,1-1.11,0l0-3.51-19.844,0,0,3.3a.555.555,0,1,1-1.11,0l0-3.3H1404.7l.007,7.078a.555.555,0,1,1-1.11,0l-.007-7.078h-1.419a2.068,2.068,0,0,1-1.56-.637,1.962,1.962,0,0,1-.4-.652,2.142,2.142,0,0,1-.135-.747h0a2.508,2.508,0,0,1,.833-1.83l5.965-5.545c1.274-1.184,3.258-1.18,4.913-1.176h.226l13.922,0Zm.231,1.11h-.231l-13.922,0h-.226c-1.456,0-3.2-.007-4.156.88l-5.965,5.545a1.4,1.4,0,0,0-.48,1.016h0a1.036,1.036,0,0,0,.061.36.847.847,0,0,0,.173.282.984.984,0,0,0,.746.285l33.613,0a.984.984,0,0,0,.746-.285.852.852,0,0,0,.173-.282,1.035,1.035,0,0,0,.063-.36,1.405,1.405,0,0,0-.48-1.016l-5.965-5.545C1429.37,968.907,1427.627,968.91,1426.172,968.913Z" transform="translate(-1400.08 -967.799)" fill="#0c3b5d" fill-rule="evenodd"/>
</svg>
